G04 Layer_Physical_Order=2*
G04 Layer_Color=32768*
%FSLAX44Y44*%
%MOMM*%
G71*
G01*
G75*
G36*
X681232Y1071044D02*
X693262Y1069139D01*
X705106Y1066296D01*
X716690Y1062532D01*
X727942Y1057871D01*
X738795Y1052341D01*
X749180Y1045977D01*
X759034Y1038818D01*
X768295Y1030908D01*
X776908Y1022295D01*
X784818Y1013034D01*
X791977Y1003180D01*
X798341Y992795D01*
X803871Y981942D01*
X808532Y970689D01*
X812296Y959106D01*
X815139Y947262D01*
X817044Y935232D01*
X818000Y923090D01*
Y917000D01*
Y910910D01*
X817044Y898768D01*
X815139Y886738D01*
X812296Y874894D01*
X808532Y863310D01*
X803871Y852058D01*
X798341Y841205D01*
X791977Y830820D01*
X784818Y820966D01*
X776908Y811705D01*
X768295Y803092D01*
X759034Y795182D01*
X749180Y788023D01*
X738795Y781659D01*
X727942Y776129D01*
X716690Y771468D01*
X705106Y767704D01*
X693262Y764861D01*
X681232Y762956D01*
X669090Y762000D01*
X656910D01*
X644768Y762956D01*
X632738Y764861D01*
X620894Y767704D01*
X609310Y771468D01*
X598058Y776129D01*
X587205Y781659D01*
X576820Y788023D01*
X566966Y795182D01*
X557705Y803092D01*
X549092Y811705D01*
X541182Y820966D01*
X534023Y830820D01*
X527659Y841205D01*
X522129Y852058D01*
X517468Y863310D01*
X513704Y874894D01*
X510861Y886738D01*
X508956Y898768D01*
X508000Y910910D01*
Y917000D01*
Y923090D01*
X508956Y935232D01*
X510861Y947262D01*
X513704Y959106D01*
X517468Y970689D01*
X522129Y981942D01*
X527659Y992795D01*
X534023Y1003180D01*
X541182Y1013034D01*
X549092Y1022295D01*
X557705Y1030908D01*
X566966Y1038818D01*
X576820Y1045977D01*
X587205Y1052341D01*
X598058Y1057871D01*
X609310Y1062532D01*
X620894Y1066296D01*
X632738Y1069139D01*
X644768Y1071044D01*
X656910Y1072000D01*
X669090D01*
X681232Y1071044D01*
D02*
G37*
M02*
