G04 Layer_Physical_Order=4*
G04 Layer_Color=16711680*
%FSLAX44Y44*%
%MOMM*%
G71*
G01*
G75*
%ADD14C,0.2000*%
%ADD15C,1.0000*%
%ADD16R,0.9720X0.8020*%
%ADD17R,5.0800X2.5400*%
%ADD18C,17.7800*%
D14*
X630730Y1032716D02*
Y1051100D01*
Y1032716D02*
X630936Y1032510D01*
X525780Y903105D02*
X531620D01*
X581914Y803910D02*
X614680D01*
X630936Y1032510D02*
X683260D01*
X614680Y803910D02*
X683260D01*
X573024Y812800D02*
X581914Y803910D01*
X573024Y812800D02*
Y861701D01*
X531620Y903105D02*
X573024Y861701D01*
X525780Y903105D02*
Y903630D01*
Y922630D02*
X531520D01*
X533654Y920496D01*
Y908152D02*
Y920496D01*
Y908152D02*
X535686Y906120D01*
X573684D01*
X592074Y887730D01*
Y835660D02*
Y887730D01*
Y835660D02*
X601472Y826262D01*
X718820D01*
X615696Y918210D02*
X683260D01*
X610616Y913130D02*
X615696Y918210D01*
X543480Y913130D02*
X610616D01*
D15*
X630730Y1051100D02*
D03*
X614680Y803910D02*
D03*
X718820Y826262D02*
D03*
D16*
X543480Y913130D02*
D03*
X525780Y903630D02*
D03*
Y922630D02*
D03*
D17*
X683260Y1032510D02*
D03*
Y803910D02*
D03*
D18*
Y918210D02*
D03*
M02*
