G04 Layer_Color=65535*
%FSLAX44Y44*%
%MOMM*%
G71*
G01*
G75*
%ADD19C,0.2540*%
D19*
X585470Y928365D02*
X590548D01*
X588009D01*
Y913130D01*
X585470D01*
X590548D01*
X598166D02*
Y923287D01*
X605783D01*
X608323Y920748D01*
Y913130D01*
X613401Y928365D02*
Y913130D01*
Y920748D01*
X615940Y923287D01*
X621018D01*
X623558Y920748D01*
Y913130D01*
X631175Y923287D02*
X636254D01*
X638793Y920748D01*
Y913130D01*
X631175D01*
X628636Y915669D01*
X631175Y918208D01*
X638793D01*
X643871Y913130D02*
X648950D01*
X646410D01*
Y928365D01*
X643871D01*
X664184Y913130D02*
X659106D01*
X656567Y915669D01*
Y920748D01*
X659106Y923287D01*
X664184D01*
X666724Y920748D01*
Y918208D01*
X656567D01*
X671802Y923287D02*
Y913130D01*
Y918208D01*
X674341Y920748D01*
X676880Y923287D01*
X679420D01*
X712429Y925826D02*
X709890Y928365D01*
X704811D01*
X702272Y925826D01*
Y915669D01*
X704811Y913130D01*
X709890D01*
X712429Y915669D01*
X720046Y923287D02*
X725125D01*
X727664Y920748D01*
Y913130D01*
X720046D01*
X717507Y915669D01*
X720046Y918208D01*
X727664D01*
X732742Y908052D02*
Y923287D01*
X740360D01*
X742899Y920748D01*
Y915669D01*
X740360Y913130D01*
X732742D01*
X637537Y952496D02*
X634997Y955035D01*
X629919D01*
X627380Y952496D01*
Y949957D01*
X629919Y947418D01*
X634997D01*
X637537Y944878D01*
Y942339D01*
X634997Y939800D01*
X629919D01*
X627380Y942339D01*
X652772Y952496D02*
X650233Y955035D01*
X645154D01*
X642615Y952496D01*
Y942339D01*
X645154Y939800D01*
X650233D01*
X652772Y942339D01*
X657850Y955035D02*
Y939800D01*
Y947418D01*
X668007D01*
Y955035D01*
Y939800D01*
X673085D02*
Y949957D01*
X678164Y955035D01*
X683242Y949957D01*
Y939800D01*
Y947418D01*
X673085D01*
X698477Y952496D02*
X695938Y955035D01*
X690860D01*
X688320Y952496D01*
Y949957D01*
X690860Y947418D01*
X695938D01*
X698477Y944878D01*
Y942339D01*
X695938Y939800D01*
X690860D01*
X688320Y942339D01*
M02*
